<?xml version="1.0" standalone="no"?>
<!DOCTYPE svg PUBLIC "-//W3C//DTD SVG 1.1//EN" "http://www.w3.org/Graphics/SVG/1.1/DTD/svg11.dtd" >
<!--
2013-9-30: Created.
-->
<svg>
<metadata>
Created by iconfont
</metadata>
<defs>

<font id="iconfont" horiz-adv-x="1024" >
  <font-face
    font-family="iconfont"
    font-weight="500"
    font-stretch="normal"
    units-per-em="1024"
    ascent="896"
    descent="-128"
  />
    <missing-glyph />
    
    <glyph glyph-name="lishi" unicode="&#58880;" d="M544 384h224a32 32 0 0 0 0-64h-256a32 32 0 0 0-32 32V608a32 32 0 0 0 64 0v-224z m-32-448C264.576-64 64 136.576 64 384S264.576 832 512 832s448-200.576 448-448-200.576-448-448-448z m0 64c212.064 0 384 171.936 384 384S724.064 768 512 768 128 596.064 128 384s171.936-384 384-384z"  horiz-adv-x="1024" />

    
    <glyph glyph-name="shangpin" unicode="&#58881;" d="M638.08 489.728A63.968 63.968 0 0 0 672 608a64 64 0 0 0 30.464-120.32 192.032 192.032 0 0 0-380.928 0 64 64 0 1 0 64.384 2.048 128.032 128.032 0 0 1 252.16 0zM163.04 64h697.92L802.784 702.4H221.216L163.04 64zM192 766.4h640a32 32 0 0 0 31.872-29.12l64-702.4A32 32 0 0 0 896 0H128a32 32 0 0 0-31.872 34.88l64 702.4A32 32 0 0 0 192 766.4z"  horiz-adv-x="1024" />

    
    <glyph glyph-name="dui" unicode="&#58882;" d="M416.768 73.92a31.936 31.936 0 0 0-26.624 9.088L118.624 354.56a32 32 0 1 0 45.248 45.248l258.272-258.272 482.272 482.24a32 32 0 1 0 45.28-45.216L451.84 80.736a32 32 0 0 0-35.104-6.848z"  horiz-adv-x="1024" />

    
    <glyph glyph-name="biaoqing" unicode="&#58883;" d="M512-57.568c-247.424 0-448 200.576-448 448s200.576 448 448 448 448-200.576 448-448-200.576-448-448-448z m0 64c212.064 0 384 171.936 384 384s-171.936 384-384 384-384-171.936-384-384 171.936-384 384-384z m-192 480a64 64 0 1 0 0 128 64 64 0 0 0 0-128z m-96-96a32 32 0 1 0 64 0 224 224 0 0 1 448 0 32 32 0 1 0 64 0 288 288 0 0 0-576 0z m512 96a64 64 0 1 0 0 128 64 64 0 0 0 0-128z"  horiz-adv-x="1024" />

    
    <glyph glyph-name="fenlei" unicode="&#58884;" d="M288 678.432h640a32 32 0 0 0 0-64H288a32 32 0 1 0 0 64z m-160-96a64 64 0 1 0 0 128 64 64 0 0 0 0-128z m0-256a64 64 0 1 0 0 128 64 64 0 0 0 0-128z m0-256a64 64 0 1 0 0 128 64 64 0 0 0 0-128z m160 352h640a32 32 0 1 0 0-64H288a32 32 0 0 0 0 64z m0-256h640a32 32 0 1 0 0-64H288a32 32 0 0 0 0 64z"  horiz-adv-x="1024" />

    
    <glyph glyph-name="fahuo" unicode="&#58885;" d="M359.744 550.432l49.792 224H208.736l-69.344-224h220.352z m65.6 0h173.344L550.336 768h-76.672l-48.32-217.568z m238.912 0h220.352l-69.344 224h-200.8l49.792-224zM608 480h-192v-201.184l79.744 45.056a32 32 0 0 0 31.36 0.032L608 278.592V480z m-256 6.432H127.936v-512h768v512H672V224a32 32 0 0 0-47.648-27.904l-112.8 63.2-111.808-63.168A32 32 0 0 0 352 224v262.432z m607.936 29.792v-573.792a32 32 0 0 0-32-32h-832a32 32 0 0 0-32 32v576c0 3.968 0.736 7.776 2.048 11.296L154.56 815.904a32 32 0 0 0 30.592 22.528h653.696a32 32 0 0 0 30.592-22.528l89.12-288a32 32 0 0 0 1.376-11.68z"  horiz-adv-x="1024" />

    
    <glyph glyph-name="gengduo" unicode="&#58886;" d="M192 326.432a64 64 0 1 0 0 128 64 64 0 0 0 0-128z m320 0a64 64 0 1 0 0 128 64 64 0 0 0 0-128z m320 0a64 64 0 1 0 0 128 64 64 0 0 0 0-128z"  horiz-adv-x="1024" />

    
    <glyph glyph-name="fankui" unicode="&#58887;" d="M896 549.12a32 32 0 1 0 64 0V-25.6a32 32 0 0 0-32-32H96a32 32 0 0 0-32 32v832a32 32 0 0 0 32 32h576.48a32 32 0 1 0 0-64H128v-768h768V549.12z m29.696 252.16a48 48 0 0 0 0-67.872L360 167.68a48 48 0 0 0-67.872 67.872L857.792 801.28a48 48 0 0 0 67.904 0zM223.008 140.736l1.92 17.536a27.52 27.52 0 0 0 46.848 16.48l20.544-20.544a27.52 27.52 0 0 0-16.48-46.848l-17.536-1.92a32 32 0 0 0-35.296 35.296z"  horiz-adv-x="1024" />

    
    <glyph glyph-name="fenxiang" unicode="&#58888;" d="M362.56 304a160 160 0 1 0 3.104 154.4L708 656c1.472 0.832 2.976 1.568 4.48 2.144a128 128 0 1 0 35.68-50.88 31.968 31.968 0 0 0-8.16-6.72L383.68 394.88a162.368 162.368 0 0 0-0.64-28.736L739.968 160c1.504-0.864 2.88-1.824 4.192-2.88a128 128 0 1 0-33.984-53.696 32.448 32.448 0 0 0-2.208 1.152L362.592 304zM224 288a96 96 0 1 1 0 192 96 96 0 0 1 0-192zM832 640a64 64 0 1 1 0 128 64 64 0 0 1 0-128z m0-640a64 64 0 1 1 0 128 64 64 0 0 1 0-128z"  horiz-adv-x="1024" />

    
    <glyph glyph-name="guanbi" unicode="&#58889;" d="M512 435.68l271.52 271.552A32 32 0 1 0 828.8 661.952l-271.52-271.52 271.52-271.52a32 32 0 0 0-45.248-45.248L512 345.184l-271.52-271.52A32 32 0 1 0 195.2 118.912l271.52 271.52L195.2 661.952a32 32 0 1 0 45.248 45.28L512 435.68z"  horiz-adv-x="1024" />

    
    <glyph glyph-name="guanzhu" unicode="&#58890;" d="M832 182.432h80a32 32 0 1 0 0-64H832v-80a32 32 0 0 0-64 0v80h-80a32 32 0 0 0 0 64H768v80a32 32 0 1 0 64 0v-80z m-452.448 251.328a224 224 0 1 0 264.864 0c26.08-8.384 51.296-19.264 75.392-32.512a32 32 0 0 0-30.848-56.064A366.176 366.176 0 0 1 512 390.4c-203.232 0-368-164.768-368-368a32 32 0 0 0-64 0c0 192.384 125.76 355.392 299.552 411.328zM512 454.4a160 160 0 1 1 0 320 160 160 0 0 1 0-320z"  horiz-adv-x="1024" />

    
    <glyph glyph-name="huidaodingbu" unicode="&#58891;" d="M544 558.208V-25.6a32 32 0 0 0-64 0v579.2l-124.128-124.096a32 32 0 1 0-45.248 45.248l181.024 181.024a32 32 0 0 0 45.248 0l181.024-181.024a32 32 0 0 0-45.248-45.248L544 558.176zM128 806.4h768a32 32 0 0 0 0-64H128a32 32 0 1 0 0 64z"  horiz-adv-x="1024" />

    
    <glyph glyph-name="huifu" unicode="&#58892;" d="M322.624 166.432a32 32 0 0 0 32-32v-88.48l200.512 116.16a32 32 0 0 0 16.032 4.32h322.656v544h-768v-544h196.8z m-228.8-64a32 32 0 0 0-32 32v608a32 32 0 0 0 32 32h832a32 32 0 0 0 32-32v-608a32 32 0 0 0-32-32H579.776l-241.12-139.68a32 32 0 0 0-48.032 27.68v112h-196.8z m162.176 256a64 64 0 1 0 0 128 64 64 0 0 0 0-128z m256 0a64 64 0 1 0 0 128 64 64 0 0 0 0-128z m256 0a64 64 0 1 0 0 128 64 64 0 0 0 0-128z"  horiz-adv-x="1024" />

    
    <glyph glyph-name="jifen" unicode="&#58893;" d="M512 486.432c-252.384 0-448 45.12-448 128s195.616 128 448 128 448-45.12 448-128-195.616-128-448-128z m0 64c109.568 0 212 9.984 286.976 27.296C861.44 592.128 896 611.008 896 614.432c0 3.424-34.56 22.272-97.024 36.704C724 668.416 621.568 678.4 512 678.4c-109.568 0-212-9.984-286.976-27.296C162.56 636.736 128 617.856 128 614.4c0-3.424 34.56-22.272 97.024-36.704 74.976-17.28 177.408-27.296 286.976-27.296z m-448-160a32 32 0 1 0 64 0c0-3.424 34.56-22.272 97.024-36.704 74.976-17.28 177.408-27.296 286.976-27.296 109.568 0 212 9.984 286.976 27.296 62.464 14.4 97.024 33.28 97.024 36.704a32 32 0 1 0 64 0c0-82.88-195.616-128-448-128s-448 45.12-448 128z m0-224a32 32 0 1 0 64 0c0-3.424 34.56-22.272 97.024-36.704 74.976-17.28 177.408-27.296 286.976-27.296 109.568 0 212 9.984 286.976 27.296 62.464 14.4 97.024 33.28 97.024 36.704a32 32 0 1 0 64 0c0-82.88-195.616-128-448-128s-448 45.12-448 128z"  horiz-adv-x="1024" />

    
    <glyph glyph-name="jian" unicode="&#58894;" d="M128 422.432m32 0l704 0q32 0 32-32l0 0q0-32-32-32l-704 0q-32 0-32 32l0 0q0 32 32 32Z"  horiz-adv-x="1024" />

    
    <glyph glyph-name="kefu" unicode="&#58895;" d="M456.576 70.432a64 64 0 1 0 0-64H416c-176.736 0-320 143.264-320 320v96c0 42.176 27.2 78.016 65.024 90.88C174.72 695.168 326.656 838.432 512 838.432s337.28-143.264 350.976-325.12A96.032 96.032 0 0 0 928 422.432v-96a96 96 0 0 0-192 0v96c0 41.376 26.144 76.608 62.816 90.112a288.032 288.032 0 0 1-573.632 0A96.032 96.032 0 0 0 288 422.432v-96a96 96 0 0 0-109.76-95.04 256.096 256.096 0 0 1 237.76-160.96h40.576zM192 454.432a32 32 0 0 1-32-32v-96a32 32 0 0 1 64 0v96a32 32 0 0 1-32 32z m640 0a32 32 0 0 1-32-32v-96a32 32 0 0 1 64 0v96a32 32 0 0 1-32 32z"  horiz-adv-x="1024" />

    
    <glyph glyph-name="lajitong" unicode="&#58896;" d="M256 646.432v160a32 32 0 0 0 32 32h448a32 32 0 0 0 32-32v-160h96a32 32 0 0 0 0-64H160a32 32 0 1 0 0 64h96z m64 0h384v128H320v-128z m416-640v544a32 32 0 1 0 64 0v-576a32 32 0 0 0-32-32H256a32 32 0 0 0-32 32v576a32 32 0 1 0 64 0v-544h448z m-352 480a32 32 0 0 0 32-32v-352a32 32 0 0 0-64 0v352a32 32 0 0 0 32 32z m128 0a32 32 0 0 0 32-32v-352a32 32 0 0 0-64 0v352a32 32 0 0 0 32 32z m128 0a32 32 0 0 0 32-32v-352a32 32 0 0 0-64 0v352a32 32 0 0 0 32 32z"  horiz-adv-x="1024" />

    
    <glyph glyph-name="qitafenlei" unicode="&#58897;" d="M128 768v-288h288V768H128z m0 64h288a64 64 0 0 0 64-64v-288a64 64 0 0 0-64-64H128a64 64 0 0 0-64 64V768a64 64 0 0 0 64 64z m0-544v-288h288v288H128z m0 64h288a64 64 0 0 0 64-64v-288a64 64 0 0 0-64-64H128a64 64 0 0 0-64 64v288a64 64 0 0 0 64 64z m480-64v-288h288v288h-288z m0 64h288a64 64 0 0 0 64-64v-288a64 64 0 0 0-64-64h-288a64 64 0 0 0-64 64v288a64 64 0 0 0 64 64z m0 416v-288h288V768h-288z m0 64h288a64 64 0 0 0 64-64v-288a64 64 0 0 0-64-64h-288a64 64 0 0 0-64 64V768a64 64 0 0 0 64 64z"  horiz-adv-x="1024" />

    
    <glyph glyph-name="shaixuan" unicode="&#58898;" d="M440.192 458.144a32 32 0 0 0 7.808-20.928v-317.664l128-85.312V437.216a32 32 0 0 0 7.808 20.928l274.112 316.288H166.08l274.112-316.288zM71.808 785.504A32 32 0 0 0 96 838.4h832a32 32 0 0 0 24.192-52.96L640 425.28V-25.6a32 32 0 0 0-49.76-26.624l-192 128a32 32 0 0 0-14.24 26.624V425.28L71.808 785.472z"  horiz-adv-x="1024" />

    
    <glyph glyph-name="shoucang" unicode="&#58899;" d="M541.76 138.912l209.888-110.304-40.096 233.664a64 64 0 0 0 18.4 56.64l169.792 165.504-234.624 34.08a64 64 0 0 0-48.192 35.04L512 766.08l-104.928-212.576a64 64 0 0 0-48.192-35.04l-234.624-34.08 169.792-165.504a64 64 0 0 0 18.4-56.64L272.32 28.608l209.856 110.304a64 64 0 0 0 59.584 0z m-239.616-166.944a64 64 0 0 0-92.864 67.456l40.096 233.664-169.792 165.504a64 64 0 0 0 35.488 109.152l234.624 34.112 104.928 212.608a64 64 0 0 0 114.752 0l104.96-212.608 234.592-34.112a64 64 0 0 0 35.488-109.152l-169.792-165.504 40.096-233.664a64 64 0 0 0-92.864-67.456L512 82.24l-209.856-110.304z"  horiz-adv-x="1024" />

    
    <glyph glyph-name="shezhi" unicode="&#58900;" d="M443.232 91.68a160 160 0 0 0 137.536 0l64.96-30.944a59.52 59.52 0 0 1 84.928 49.024l5.696 71.744a160 160 0 0 0 68.768 119.104l59.264 40.8a59.52 59.52 0 0 1 0 98.048l-59.264 40.8A160 160 0 0 0 736.32 599.36l-5.696 71.744a59.52 59.52 0 0 1-84.896 49.024l-64.992-30.944a160 160 0 0 0-137.536 0l-64.96 30.944a59.52 59.52 0 0 1-84.928-49.024L287.68 599.36a160 160 0 0 0-68.768-119.104l-59.264-40.8a59.52 59.52 0 0 1 0-98.048l59.264-40.8a160 160 0 0 0 68.768-119.104l5.696-71.744a59.52 59.52 0 0 1 84.896-49.024l64.992 30.944z m27.52-57.792l-64.992-30.944a123.52 123.52 0 0 0-176.192 101.76l-5.728 71.744a96 96 0 0 1-41.248 71.424l-59.296 40.832a123.52 123.52 0 0 0 0 203.456l59.296 40.832a96 96 0 0 1 41.28 71.456l5.696 71.744A123.52 123.52 0 0 0 405.76 777.92l64.96-30.944a96 96 0 0 1 82.56 0l64.96 30.944a123.52 123.52 0 0 0 176.192-101.76l5.728-71.712a96 96 0 0 1 41.248-71.456l59.296-40.832a123.52 123.52 0 0 0 0-203.456l-59.296-40.832a96 96 0 0 1-41.28-71.424l-5.696-71.776a123.52 123.52 0 0 0-176.192-101.728l-64.96 30.944a96 96 0 0 1-82.56 0zM512 198.432a192 192 0 1 0 0 384 192 192 0 0 0 0-384z m0 64a128 128 0 1 1 0 256 128 128 0 0 1 0-256z"  horiz-adv-x="1024" />

    
    <glyph glyph-name="shouji" unicode="&#58901;" d="M288 768a32 32 0 0 1-32-32v-704a32 32 0 0 1 32-32h448a32 32 0 0 1 32 32V736a32 32 0 0 1-32 32H288z m0 64h448a96 96 0 0 0 96-96v-704a96 96 0 0 0-96-96H288a96 96 0 0 0-96 96V736a96 96 0 0 0 96 96z m224-800a64 64 0 1 0 0 128 64 64 0 0 0 0-128zM448 736h128a32 32 0 0 0 0-64h-128a32 32 0 0 0 0 64z"  horiz-adv-x="1024" />

    
    <glyph glyph-name="shouhuo" unicode="&#58902;" d="M895.936 486.432h-768v-512h768v512z m-756.544 64h745.216l-69.344 224H208.736l-69.344-224z m820.544-34.208v-573.792a32 32 0 0 0-32-32h-832a32 32 0 0 0-32 32v576c0 3.968 0.736 7.776 2.048 11.296L154.56 815.904a32 32 0 0 0 30.592 22.528h653.696a32 32 0 0 0 30.592-22.528l89.12-288a32 32 0 0 0 1.376-11.68zM224 390.432h256a32 32 0 1 0 0-64H224a32 32 0 0 0 0 64z m391.776-330.048l-113.152 113.152a32 32 0 0 0 45.248 45.248l90.528-90.496 158.4 158.4a32 32 0 0 0 45.248-45.28l-181.024-181.024a32 32 0 0 0-45.248 0zM224 262.432h160a32 32 0 1 0 0-64H224a32 32 0 0 0 0 64z"  horiz-adv-x="1024" />

    
    <glyph glyph-name="qianbao" unicode="&#58903;" d="M64.32 618.784a32 32 0 0 0 23.68 35.36L795.584 837.44a32 32 0 0 0 39.68-26.24l24.8-164.8H928a32 32 0 0 0 32-32v-192a32 32 0 0 0-32-32h-288a96 96 0 1 1 0-192h288a32 32 0 0 0 32-32v-192a32 32 0 0 0-32-32H96a32 32 0 0 0-32 32v640c0 1.472 0.096 2.944 0.32 4.352z m249.12 27.648h481.92l-18.08 120.16L313.44 646.432z m582.56-192v128H128v-576h768v128h-256a160 160 0 0 0 0 320h256z m-256-224a64 64 0 1 0 0 128 64 64 0 0 0 0-128z"  horiz-adv-x="1024" />

    
    <glyph glyph-name="sousuo" unicode="&#58904;" d="M659.136 288.544l269.536-269.536a32 32 0 0 0-45.248-45.248l-269.536 269.536A334.624 334.624 0 0 0 400 166.4c-185.568 0-336 150.432-336 336s150.432 336 336 336S736 688 736 502.432c0-81.28-28.832-155.776-76.864-213.888zM602.88 321.28a272 272 0 1 1-21.728-21.728 31.872 31.872 0 0 0 21.76 21.728z"  horiz-adv-x="1024" />

    
    <glyph glyph-name="shoucangxuanze" unicode="&#58905;" d="M497.12 94.592L268.448-25.6a32 32 0 0 0-46.432 33.728l43.68 254.624a32 32 0 0 1-9.216 28.32L71.488 471.36a32 32 0 0 0 17.728 54.592l255.68 37.12a32 32 0 0 1 24.064 17.536l114.336 231.648a32 32 0 0 0 57.408 0l114.336-231.68a32 32 0 0 1 24.096-17.472l255.648-37.152a32 32 0 0 0 17.728-54.592l-184.992-180.32a32 32 0 0 1-9.216-28.32l43.68-254.624a32 32 0 0 0-46.4-33.728l-228.704 120.192a32 32 0 0 1-29.76 0z"  horiz-adv-x="1024" />

    
    <glyph glyph-name="suo" unicode="&#58906;" d="M288 480V608a224 224 0 0 0 448 0v-128h96a32 32 0 0 0 32-32v-480a32 32 0 0 0-32-32H192a32 32 0 0 0-32 32V448a32 32 0 0 0 32 32h96z m64 0h320V608a160 160 0 0 1-320 0v-128z m-128-64v-416h576V416H224z m288-96a32 32 0 0 0 32-32v-160a32 32 0 0 0-64 0v160a32 32 0 0 0 32 32z"  horiz-adv-x="1024" />

    
    <glyph glyph-name="tishi" unicode="&#58907;" d="M512-64C264.576-64 64 136.576 64 384S264.576 832 512 832s448-200.576 448-448-200.576-448-448-448z m0 64c212.064 0 384 171.936 384 384S724.064 768 512 768 128 596.064 128 384s171.936-384 384-384z m-30.24 672h60.352a32 32 0 0 0 31.936-33.824l-18.336-320a32 32 0 0 0-31.936-30.176h-24.8a32 32 0 0 0-31.968 30.272l-17.184 320A32 32 0 0 0 481.76 672z m29.696-448c17.984 0 33.856-5.376 46.56-18.272 11.648-11.84 17.984-26.88 17.984-45.184 0-19.36-6.336-34.432-17.984-46.272-12.704-11.84-28.576-18.272-46.56-18.272a64.288 64.288 0 0 0-45.472 18.272c-12.704 12.928-17.984 27.968-17.984 46.272 0 18.272 5.28 33.344 17.984 45.184 12.704 12.896 27.52 18.272 45.472 18.272z"  horiz-adv-x="1024" />

    
    <glyph glyph-name="tianjia" unicode="&#58908;" d="M544 422.432h320a32 32 0 1 0 0-64H544v-320a32 32 0 0 0-64 0v320H160a32 32 0 0 0 0 64h320v320a32 32 0 0 0 64 0v-320z"  horiz-adv-x="1024" />

    
    <glyph glyph-name="tongzhi" unicode="&#58909;" d="M307.2 556.832a32 32 0 0 0-19.2-6.4H128v-320h160a32 32 0 0 0 19.2-6.4l204.8-153.6v640l-204.8-153.6z m217.6 243.2a32 32 0 0 0 51.2-25.6v-768a32 32 0 0 0-51.2-25.6l-247.456 185.6H96a32 32 0 0 0-32 32v384a32 32 0 0 0 32 32h181.344l247.456 185.6z m165.44-602.304a32 32 0 0 0-32.64 55.04A159.872 159.872 0 0 1 736 390.4a159.904 159.904 0 0 1-79.04 138.048 32 32 0 0 0 32.416 55.168A223.872 223.872 0 0 0 800 390.432c0-79.968-42.24-152.64-109.76-192.704z m26.24-130.144a32 32 0 1 0-25.568 58.688A288.032 288.032 0 0 1 864 390.4a288.032 288.032 0 0 1-171.456 263.456 32 32 0 1 0 25.92 58.496A352 352 0 0 0 928 390.432c0-141.376-84.128-267.328-211.52-322.848z"  horiz-adv-x="1024" />

    
    <glyph glyph-name="tupian" unicode="&#58910;" d="M128 390.432a128 128 0 0 1 128-128c51.04 0 107.392 41.6 127.424 91.84 43.264 108.768 169.6 196.16 288.576 196.16a287.456 287.456 0 0 0 224-106.976V710.432H128v-320z m0-143.104V70.4h768v192a224 224 0 0 1-224 224c-92.544 0-195.456-71.2-229.12-155.84-29.376-73.664-108.544-132.16-186.88-132.16a191.296 191.296 0 0 0-128 48.896zM96 774.4h832a32 32 0 0 0 32-32v-704a32 32 0 0 0-32-32H96a32 32 0 0 0-32 32v704a32 32 0 0 0 32 32z m208-352a112 112 0 1 0 0 224 112 112 0 0 0 0-224z m0 64a48 48 0 1 1 0 96 48 48 0 0 1 0-96z"  horiz-adv-x="1024" />

    
    <glyph glyph-name="weizhi" unicode="&#58911;" d="M512-57.568c-87.488 0-336 397.536-336 560 0 185.568 150.432 336 336 336s336-150.432 336-336c0-162.464-248.512-560-336-560z m3.712 63.872l-0.128 0.096a44.16 44.16 0 0 0-3.584 2.304c-1.376-0.96-2.56-1.728-3.616-2.336-0.416-0.224 0.416 0.064 3.616 0.064 2.656 0 3.68-0.192 3.712-0.128z m3.744 8.256c10.336 8.832 23.328 22.336 37.952 39.52 30.56 35.872 66.016 85.184 99.264 138.368 76.896 122.976 127.328 241.696 127.328 309.984a272 272 0 1 1-544 0c0-68.288 50.432-187.008 127.36-309.984 33.216-53.184 68.672-102.496 99.2-138.368 14.656-17.184 27.648-30.688 37.984-39.52 2.816-2.368 5.312-4.32 7.456-5.856 2.144 1.536 4.64 3.488 7.456 5.856zM512 358.432a160 160 0 1 0 0 320 160 160 0 0 0 0-320z m0 64a96 96 0 1 1 0 192 96 96 0 0 1 0-192z"  horiz-adv-x="1024" />

    
    <glyph glyph-name="tuikuan" unicode="&#58912;" d="M812.192 102.432H928a32 32 0 1 0 0-64h-192a31.904 31.904 0 0 0-32 32v192a32 32 0 1 0 64 0v-113.6a350.72 350.72 0 0 1 96 241.6c0 194.4-157.6 352-352 352s-352-157.6-352-352 157.6-352 352-352a32 32 0 1 0 0-64c-229.76 0-416 186.24-416 416s186.24 416 416 416 416-186.24 416-416a414.72 414.72 0 0 0-115.808-288z m-263.904 304v-64h96a32 32 0 0 0 0-64h-96v-128a32 32 0 1 0-64 0v128h-96a32 32 0 1 0 0 64h96v64h-96a32 32 0 1 0 0 64h23.424l-55.424 96a32 32 0 1 0 55.424 32l73.92-128h52.768l73.92 128a32 32 0 0 0 55.392-32l-55.424-96h32a32 32 0 0 0 0-64h-96z"  horiz-adv-x="1024" />

    
    <glyph glyph-name="wenti" unicode="&#58913;" d="M512-64C264.576-64 64 136.576 64 384S264.576 832 512 832s448-200.576 448-448-200.576-448-448-448z m0 64c212.064 0 384 171.936 384 384S724.064 768 512 768 128 596.064 128 384s171.936-384 384-384z m7.456 688c56.256 0 101.056-14.144 135.36-44.064C687.264 615.68 704 576.64 704 526.752c0-37.408-11.424-69.824-33.376-97.248-8.8-9.984-32.512-31.584-71.2-64-19.328-15.776-32.512-30.752-41.28-45.696-11.424-18.304-16.704-38.24-16.704-60.704v-19.104h-70.304v19.104c0 27.456 5.28 51.52 15.808 72.32 12.32 24.96 41.312 56.512 88.768 96.416 14.08 13.312 24.608 23.264 29.856 29.92 17.6 20.8 26.368 42.4 26.368 65.664 0 33.28-10.56 59.008-29.856 77.312-20.224 19.936-49.216 29.088-86.112 29.088-43.936 0-76.48-13.312-97.536-40.736-12.896-15.52-22.56-47.36-29.024-95.584H320c11.136 69.824 28.416 116.352 51.84 139.648C407.04 669.728 456.192 688 519.456 688z m-8-496c17.984 0 33.856-5.376 46.56-18.272 11.648-11.84 17.984-26.88 17.984-45.184 0-19.36-6.336-34.432-19.04-46.272-12.704-11.84-27.52-18.272-45.504-18.272a64.288 64.288 0 0 0-45.472 18.272c-12.704 12.928-17.984 27.968-17.984 46.272 0 18.272 5.28 33.344 17.984 45.184 12.704 12.896 27.52 18.272 45.472 18.272z"  horiz-adv-x="1024" />

    
    <glyph glyph-name="xiangji" unicode="&#58914;" d="M253.696 570.56A32 32 0 0 0 224 550.4H128v-480h768v480h-96a32 32 0 0 0-29.696 20.128L714.336 710.4H309.664L253.696 570.56z m4.608 183.744A32 32 0 0 0 288 774.432h448a32 32 0 0 0 29.696-20.128l55.968-139.872H928a32 32 0 0 0 32-32v-544a32 32 0 0 0-32-32H96a32 32 0 0 0-32 32v544a32 32 0 0 0 32 32h106.336l55.968 139.872zM512 134.432a192 192 0 1 0 0 384 192 192 0 0 0 0-384z m0 64a128 128 0 1 1 0 256 128 128 0 0 1 0-256z"  horiz-adv-x="1024" />

    
    <glyph glyph-name="xiaoxi" unicode="&#58915;" d="M324.8 166.432a32 32 0 0 0 32-32v-88.48l200.512 116.16a32 32 0 0 0 16.032 4.32H896v544H128v-544h196.8z m-228.8-64a32 32 0 0 0-32 32v608a32 32 0 0 0 32 32h832a32 32 0 0 0 32-32v-608a32 32 0 0 0-32-32H581.952l-241.12-139.68A32 32 0 0 0 292.8-9.6v112H96z m352 512h352a32 32 0 0 0 0-64H448a32 32 0 0 0 0 64z m0-128h352a32 32 0 1 0 0-64H448a32 32 0 0 0 0 64z m-224-128h576a32 32 0 1 0 0-64H224a32 32 0 0 0 0 64z"  horiz-adv-x="1024" />

    
    <glyph glyph-name="xiaoliang" unicode="&#58916;" d="M906.048 704.256l-238.688-237.696a31.808 31.808 0 0 0-2.464-2.752l-0.384-0.416a32 32 0 0 0-44.864-0.384l-181.856 175.488-273.92-273.92a32 32 0 0 0-45.248 45.28L412.8 704a31.872 31.872 0 0 0 20.928 9.312 31.968 31.968 0 0 0 27.552-8.512l180.096-173.792L879.36 768H704a32 32 0 0 0 0 64h224c1.696 0 3.392-0.128 5.024-0.384A32 32 0 0 0 970.048 800v-224a32 32 0 0 0-64 0V704.256zM192 256a32 32 0 0 0 32-32v-256a32 32 0 0 0-64 0v256a32 32 0 0 0 32 32z m224 160a32 32 0 0 0 32-32v-416a32 32 0 0 0-64 0V384a32 32 0 0 0 32 32z m224-160a32 32 0 0 0 32-32v-256a32 32 0 0 0-64 0v256a32 32 0 0 0 32 32z m192 192a32 32 0 0 0 32-32v-448a32 32 0 0 0-64 0V416a32 32 0 0 0 32 32z"  horiz-adv-x="1024" />

    
    <glyph glyph-name="yaoqing" unicode="&#58917;" d="M192 439.104V800a32 32 0 0 0 32 32h576a32 32 0 0 0 32-32v-361.216l82.56 38.24A32 32 0 0 0 960 448v-480a32 32 0 0 0-32-32H96a32 32 0 0 0-32 32V448a32 32 0 0 0 45.376 29.088L192 439.104z m63.456-29.152l258.304-118.72L768 409.088V768H256v-352.192c0-2.016-0.192-3.968-0.544-5.856zM128 0h768V397.888l-368.736-170.912a32 32 0 0 0-26.816-0.064L128 398.08V0z m256 704h256a32 32 0 0 0 0-64h-256a32 32 0 0 0 0 64z m0-128h256a32 32 0 0 0 0-64h-256a32 32 0 0 0 0 64z"  horiz-adv-x="1024" />

    
    <glyph glyph-name="youhuiquan" unicode="&#58918;" d="M768 390.432a160.064 160.064 0 0 0 128 156.8v163.2H128v-163.2a160.064 160.064 0 0 0 0-313.6v-163.2h768v163.2a160.064 160.064 0 0 0-128 156.8z m192-128v-224a32 32 0 0 0-32-32H96a32 32 0 0 0-32 32v224a32 32 0 0 0 32 32 96 96 0 0 1 0 192 32 32 0 0 0-32 32v224a32 32 0 0 0 32 32h832a32 32 0 0 0 32-32v-224a32 32 0 0 0-32-32 96 96 0 1 1 0-192 32 32 0 0 0 32-32z m-416 160v-64h96a32 32 0 1 0 0-64h-96v-128a32 32 0 0 0-64 0v128h-96a32 32 0 0 0 0 64h96v64h-96a32 32 0 0 0 0 64h23.424l-55.424 96a32 32 0 1 0 55.424 32l73.92-128h52.768l73.888 128a32 32 0 0 0 55.424-32l-55.424-96h32a32 32 0 1 0 0-64h-96z"  horiz-adv-x="1024" />

    
    <glyph glyph-name="yaoqingma" unicode="&#58919;" d="M128 768v-288h288V768H128z m0 64h288a64 64 0 0 0 64-64v-288a64 64 0 0 0-64-64H128a64 64 0 0 0-64 64V768a64 64 0 0 0 64 64z m128-160h32a32 32 0 0 0 32-32v-32a32 32 0 0 0-32-32H256a32 32 0 0 0-32 32V640a32 32 0 0 0 32 32z m480 0h32a32 32 0 0 0 32-32v-32a32 32 0 0 0-32-32h-32a32 32 0 0 0-32 32V640a32 32 0 0 0 32 32zM256 192h32a32 32 0 0 0 32-32v-32a32 32 0 0 0-32-32H256a32 32 0 0 0-32 32v32a32 32 0 0 0 32 32z m416-192h64v-64h-64v64z m192 0h64v-64h-64v64z m-96 0h64v-64h-64v64zM128 288v-288h288v288H128z m0 64h288a64 64 0 0 0 64-64v-288a64 64 0 0 0-64-64H128a64 64 0 0 0-64 64v288a64 64 0 0 0 64 64zM608 768v-288h288V768h-288z m0 64h288a64 64 0 0 0 64-64v-288a64 64 0 0 0-64-64h-288a64 64 0 0 0-64 64V768a64 64 0 0 0 64 64z m-32-480h352a32 32 0 0 0 0-64H576a32 32 0 0 0 0 64z m96-128h256a32 32 0 0 0 0-64h-256a32 32 0 0 0 0 64z m-128-256v192a32 32 0 0 0 64 0v-192a32 32 0 0 0-64 0z m128 128h256a32 32 0 0 0 0-64h-256a32 32 0 0 0 0 64z"  horiz-adv-x="1024" />

    
    <glyph glyph-name="zhuanfa" unicode="&#58920;" d="M841.408 582.432h-15.04a512.128 512.128 0 0 1-476.608-324.48 32 32 0 1 0-59.52 23.424A576.128 576.128 0 0 0 826.368 646.432h28.096l-229.12 132.288a32 32 0 0 0 32 55.424l274.752-158.624a32 32 0 0 0 11.712-43.712l-161.344-279.456a32 32 0 1 0-55.424 32l114.368 198.08z m54.592-512v251.36a32 32 0 0 0 64 0V38.4a32 32 0 0 0-32-32H96a32 32 0 0 0-32 32v704a32 32 0 0 0 32 32h417.216a32 32 0 0 0 0-64H128v-640h768z"  horiz-adv-x="1024" />

    
    <glyph glyph-name="youjiantou" unicode="&#58921;" d="M779.36 381.536c1.28-9.6-1.728-19.616-9.088-26.976L362.976-52.736a32 32 0 0 0-45.248 45.248l389.024 389.024L317.728 770.56a32 32 0 1 0 45.248 45.248l407.296-407.296c7.36-7.36 10.4-17.408 9.088-26.976z"  horiz-adv-x="1024" />

    
    <glyph glyph-name="tuandui" unicode="&#58922;" d="M669.76 703.04a31.872 31.872 0 0 0 13.696 0.416 224.064 224.064 0 0 0 84.128-405.728 320.256 320.256 0 0 0 194.432-294.432 32 32 0 0 0-64 0 256 256 0 0 1-104.768 206.592A358.016 358.016 0 0 0 864-4.576a27.264 27.264 0 0 0-27.072-27.424 27.264 27.264 0 0 0-27.072 27.424c0 166.624-133.376 301.728-297.856 301.728s-297.856-135.104-297.856-301.728a27.264 27.264 0 0 0-27.072-27.424 27.264 27.264 0 0 0-27.072 27.424c0 79.008 25.376 152 68.288 211.104A255.936 255.936 0 0 1 128 3.296a32 32 0 0 0-64 0c0 131.392 79.584 245.44 194.432 294.432a224.096 224.096 0 0 0 84.128 405.728 31.904 31.904 0 0 0 12.064-0.064A223.296 223.296 0 0 0 512 768c61.536 0 117.248-24.8 157.76-64.96z m52.352-81.184c8.96-24.256 13.888-50.496 13.888-77.856a224.032 224.032 0 0 0-132-204.288c19.2-5.28 37.824-12.16 55.584-20.48l0.16 0.064a31.84 31.84 0 0 0 14.624 7.264 160.064 160.064 0 0 1 47.744 295.296z m-420.768-1.504a160.064 160.064 0 0 1 50.272-293.792 31.872 31.872 0 0 0 14.048-6.72c17.408 8.032 35.552 14.72 54.336 19.84a224.032 224.032 0 0 0-118.656 280.64zM512 376a168 168 0 1 1 0 336 168 168 0 0 1 0-336z m-93.44 101.184a23.936 23.936 0 0 0 10.944 32.288 24.512 24.512 0 0 0 32.704-10.816c10.88-21.568 29.952-34.496 50.208-34.496 19.84 0 38.56 12.416 49.6 33.312a24.512 24.512 0 0 0 32.864 10.24 23.936 23.936 0 0 0 10.368-32.448C586.208 439.104 551.36 416 512.416 416c-39.712 0-75.072 24-93.856 61.184z"  horiz-adv-x="1024" />

    
    <glyph glyph-name="tongxunlu" unicode="&#58923;" d="M405.312 360.768a160 160 0 1 0 213.408 0A256.032 256.032 0 0 0 768 128a32 32 0 0 0-64 0 192 192 0 1 1-384 0 32 32 0 0 0-64 0 256.032 256.032 0 0 0 149.312 232.768zM160 604.576a32 32 0 1 0-64 0V768a32 32 0 0 0 32 32h768a32 32 0 0 0 32-32v-768a32 32 0 0 0-32-32H128a32 32 0 0 0-32 32v161.92a32 32 0 0 0 64 0V32h704V736H160v-131.424zM96 512h64a32 32 0 0 0 0-64H96a32 32 0 0 0 0 64z m0-96h64a32 32 0 0 0 0-64H96a32 32 0 0 0 0 64z m0-96h64a32 32 0 0 0 0-64H96a32 32 0 0 0 0 64z m416 64a96 96 0 1 1 0 192 96 96 0 0 1 0-192z"  horiz-adv-x="1024" />

    
    <glyph glyph-name="yidianzan" unicode="&#58924;" d="M96 480h128a32 32 0 0 0 32-32v-480a32 32 0 0 0-32-32H96a32 32 0 0 0-32 32V448a32 32 0 0 0 32 32z m518.72 1.536h304.864a32 32 0 0 0 31.04-39.872l-122.56-481.568a32 32 0 0 0-31.008-24.096H352a32 32 0 0 0-32 32V465.504a32 32 0 0 0 12.544 25.408c108.384 82.912 162.56 176.736 162.56 281.472C500.064 780.896 486.496 832 551.84 832c0 0 154.176-17.024 62.912-350.464z"  horiz-adv-x="1024" />

    
    <glyph glyph-name="dianzan" unicode="&#58925;" d="M128 448v-448h64V448H128z m-32 64h128a32 32 0 0 0 32-32v-512a32 32 0 0 0-32-32H96a32 32 0 0 0-32 32V480a32 32 0 0 0 32 32z m832.736-5.44a32 32 0 0 0 31.072-39.648l-124.928-506.56a32 32 0 0 0-31.072-24.352H352a32 32 0 0 0-32 32V474.56a32 32 0 0 0 12.768 25.6c4.16 3.104 12 9.568 22.272 18.944a498.784 498.784 0 0 1 50.912 53.888c45.056 55.552 71.68 113.92 71.68 171.648a32 32 0 0 0 4.096 15.68c-2.624-4.672-2.624-4.16-2.688-5.28 0.768 11.968 1.376 17.056 3.808 25.536C492 812.512 518.72 832 560.704 832l3.616-0.192c16.96-1.92 39.136-11.04 60.32-32.224 50.976-50.976 66.464-145.376 33.44-292.992h270.656z m-311.424-64a32 32 0 0 0-30.944 40.224c40.096 151.04 29.472 235.072-7.008 271.584a54.816 54.816 0 0 1-21.6 13.6c-11.072-0.128-12.32-1.28-13.408-5.024-0.736-2.56-0.96-4.864-1.472-12.192a90.624 90.624 0 0 0-1.28-10.944c-1.408-73.024-33.6-142.656-85.952-207.136A562.24 562.24 0 0 0 384 459.328V0h394.72l109.184 442.56H617.28z"  horiz-adv-x="1024" />

    
    <glyph glyph-name="chenggong" unicode="&#58926;" d="M442.24 315.84l-110.176 114.752L288 384.64 442.24 224l44.064 45.92L736 530.08 691.936 576l-249.728-260.16zM512 832c247.456 0 448-200.544 448-448s-200.64-448-448-448S64 136.64 64 384 264.544 832 512 832z"  horiz-adv-x="1024" />

    
    <glyph glyph-name="rili" unicode="&#58927;" d="M704 640H320v-96a32 32 0 0 0-64 0V640H128v-640h768V640h-128v-96a32 32 0 0 0-64 0V640z m64 64h160a32 32 0 0 0 32-32v-704a32 32 0 0 0-32-32H96a32 32 0 0 0-32 32V672a32 32 0 0 0 32 32h160V800a32 32 0 1 0 64 0v-96h384V800a32 32 0 0 0 64 0v-96zM224 448h128v-128H224v128z m0-192h128v-128H224v128z m224 192h128v-128h-128v128z m0-192h128v-128h-128v128z m224 192h128v-128h-128v128z m0-192h128v-128h-128v128z"  horiz-adv-x="1024" />

    
    <glyph glyph-name="biao" unicode="&#58928;" d="M355.2 704a160.064 160.064 0 0 0 313.6 0h34.528a32 32 0 1 0 0-64h-383.04a32 32 0 0 0 0 64H355.2z m66.24 0h181.12a96.032 96.032 0 0 1-181.12 0z m347.008-32a32 32 0 0 0 32 32H832a32 32 0 0 0 32-32v-704a32 32 0 0 0-32-32H192a32 32 0 0 0-32 32V672a32 32 0 0 0 32 32h31.36A32 32 0 0 0 224 640v-640h576V640a32 32 0 0 0-31.552 32zM352 480h320a32 32 0 0 0 0-64H352a32 32 0 0 0 0 64z m0-128h320a32 32 0 0 0 0-64H352a32 32 0 0 0 0 64z m0-128h320a32 32 0 0 0 0-64H352a32 32 0 0 0 0 64z"  horiz-adv-x="1024" />

    
    <glyph glyph-name="xiazai" unicode="&#58929;" d="M896 383.84a32 32 0 0 0 64 0V-32a32 32 0 0 0-32-32H96a32 32 0 0 0-32 32V383.936a32 32 0 1 0 64 0V0h768V383.84z m-352-170.336l139.904 139.904a32 32 0 0 0 45.248-45.248l-194.592-194.624-3.424-3.392a32 32 0 0 0-45.248 0l-181.024 180.992a32 32 0 0 0 0 45.28l3.424 3.392a32 32 0 0 0 45.248 0L480 213.344V784a32 32 0 0 0 64 0v-570.496z"  horiz-adv-x="1024" />

    
    <glyph glyph-name="danxuan-xuanzhong" unicode="&#58930;" d="M512 160a224 224 0 1 0 0 448 224 224 0 0 0 0-448z m0-224C264.576-64 64 136.576 64 384S264.576 832 512 832s448-200.576 448-448-200.576-448-448-448z m0 64c212.064 0 384 171.936 384 384S724.064 768 512 768 128 596.064 128 384s171.936-384 384-384z"  horiz-adv-x="1024" />

    
    <glyph glyph-name="danxuan-weixuan" unicode="&#58931;" d="M512-64C264.576-64 64 136.576 64 384S264.576 832 512 832s448-200.576 448-448-200.576-448-448-448z m0 64c212.064 0 384 171.936 384 384S724.064 768 512 768 128 596.064 128 384s171.936-384 384-384z"  horiz-adv-x="1024" />

    
    <glyph glyph-name="daifukuan" unicode="&#58932;" d="M800 224h32a32 32 0 0 0 0-64h-64a32 32 0 0 0-32 32v64a32 32 0 0 0 64 0v-32z m96 256H128v-384h416.768a32 32 0 1 0 0-64H96a32 32 0 0 0-32 32V704a32 32 0 0 0 32 32h832a32 32 0 0 0 32-32v-288.64a32 32 0 1 0-64 0V480z m0 128V672H128v-64h768zM243.776 288h152.448a32 32 0 0 0 28.608-46.304l-32-64a32 32 0 0 0-28.608-17.696H211.776a32 32 0 0 0-28.608 46.304l32 64A32 32 0 0 0 243.776 288zM768 0a192 192 0 1 0 0 384 192 192 0 0 0 0-384z m0 64a128 128 0 1 1 0 256 128 128 0 0 1 0-256z"  horiz-adv-x="1024" />

    
    <glyph glyph-name="tuichu" unicode="&#58933;" d="M853.024 352H416a32 32 0 0 0 0 64h434.752l-92.128 92.128a32 32 0 1 0 45.248 45.248l135.776-135.776c1.92-1.888 3.52-3.968 4.8-6.144a32 32 0 0 0 1.792-53.76 31.936 31.936 0 0 0-6.592-9.6l-135.776-135.744a32 32 0 1 0-45.248 45.248l94.4 94.4zM832 187.712a32 32 0 1 0 64 0V32a32 32 0 0 0-32-32H96a32 32 0 0 0-32 32V736a32 32 0 0 0 32 32h768a32 32 0 0 0 32-32v-164.256a32 32 0 1 0-64 0V704H128v-640h704v123.712z"  horiz-adv-x="1024" />

    
    <glyph glyph-name="chakan" unicode="&#58934;" d="M512 96c-152.544 0-299.552 90.464-441.024 268.064a32 32 0 0 0 0 39.872C212.416 581.536 359.456 672 512 672c152.544 0 299.552-90.464 441.024-268.064a32 32 0 0 0 0-39.872C811.584 186.464 664.544 96 512 96z m0 64c124.8 0 249.728 73.696 374.72 224C761.76 534.304 636.8 608 512 608c-124.8 0-249.728-73.696-374.72-224 124.992-150.304 249.92-224 374.72-224z m0 64a160 160 0 1 0 0 320 160 160 0 0 0 0-320z m0 64a96 96 0 1 1 0 192 96 96 0 0 1 0-192z"  horiz-adv-x="1024" />

    
    <glyph glyph-name="dingwei" unicode="&#58935;" d="M129.312 416C144.704 602.56 293.472 751.296 480 766.688V800a32 32 0 0 0 64 0v-33.312c186.56-15.392 335.296-164.16 350.688-350.688H928a32 32 0 0 0 0-64h-33.312c-15.392-186.56-164.16-335.296-350.688-350.688V-32a32 32 0 0 0-64 0v33.312C293.44 16.704 144.704 165.472 129.312 352H96a32 32 0 0 0 0 64h33.312z m64.256 0H224a32 32 0 0 0 0-64h-30.4A320.096 320.096 0 0 1 480 65.6V96a32 32 0 0 0 64 0v-30.4A320.096 320.096 0 0 1 830.4 352H800a32 32 0 0 0 0 64h30.4A320.096 320.096 0 0 1 544 702.4V672a32 32 0 0 0-64 0v30.4A320.096 320.096 0 0 1 193.6 416zM512 224a160 160 0 1 0 0 320 160 160 0 0 0 0-320z"  horiz-adv-x="1024" />

    
    <glyph glyph-name="chucuo" unicode="&#58936;" d="M512-64C264.576-64 64 136.576 64 384S264.576 832 512 832s448-200.576 448-448-200.576-448-448-448z m0 64c212.064 0 384 171.936 384 384S724.064 768 512 768 128 596.064 128 384s171.936-384 384-384z m0 429.248l181.024 181.024a32 32 0 0 0 45.248-45.248L557.248 384l181.024-181.024a32 32 0 0 0-45.248-45.248L512 338.752l-181.024-181.024a32 32 0 0 0-45.248 45.248L466.752 384l-181.024 181.024a32 32 0 0 0 45.248 45.248L512 429.248z"  horiz-adv-x="1024" />

    
    <glyph glyph-name="zhengque" unicode="&#58937;" d="M512-64C264.576-64 64 136.576 64 384S264.576 832 512 832s448-200.576 448-448-200.576-448-448-448z m0 64c212.064 0 384 171.936 384 384S724.064 768 512 768 128 596.064 128 384s171.936-384 384-384z m-102.4 243.328l323.2 323.296a32 32 0 0 0 45.248-45.248l-345.6-345.728a32 32 0 0 0-45.28 0 32.576 32.576 0 0 0-0.832 0.864 32.256 32.256 0 0 0-3.552 3.104l-149.44 149.76a32 32 0 0 0 45.28 45.216l130.976-131.264z"  horiz-adv-x="1024" />

    
    <glyph glyph-name="wuliu" unicode="&#58938;" d="M672 512h-32v-352h32c1.344 0 2.656-0.096 3.968-0.256a128.064 128.064 0 0 0 248 0.256H960v128h-256a32 32 0 0 0-32 32v192z m64 0v-160h207.36l-190.688 160H736z m-96 64h125.856a32 32 0 0 0 22.528-9.28l226.144-192.64a32 32 0 0 0 9.472-22.72V128a32 32 0 0 0-32-32h-68.032a128.064 128.064 0 0 0-248 0.256A32.32 32.32 0 0 0 672 96h-66.112H608a32 32 0 0 1 0 64h32v-32a32 32 0 0 0-32-32h-164.032a128.064 128.064 0 0 0-247.936 0H32c-17.664 0-32 15.168-32 33.888V734.08C0 752.832 14.336 768 32 768h577.312A32 32 0 0 0 640 736v-160z m-64-32V700.224H64v-536.448h133.056a128.064 128.064 0 0 0 246.912-3.776H576V544z m224-480a64 64 0 1 1 0 128 64 64 0 0 1 0-128z m-480 0a64 64 0 1 1 0 128 64 64 0 0 1 0-128z"  horiz-adv-x="1024" />

    
    <glyph glyph-name="daohang" unicode="&#58939;" d="M798.208 679.776L242.24 405.952l201.472-52.288c14.048-3.648 25.024-14.624 28.672-28.704l52.032-200.992 273.76 555.84zM400.864 282.144l-282.88 73.44c-35.84 9.28-40.864 58.24-7.616 74.592L868.384 803.52c34.272 16.896 70.464-19.296 53.568-53.536L548.608-8.032c-16.384-33.28-65.312-28.288-74.624 7.648l-73.12 282.528z"  horiz-adv-x="1024" />

    
    <glyph glyph-name="xingcheng" unicode="&#58940;" d="M736 32H288v-32a32 32 0 0 0-64 0v32H128a32 32 0 0 0-32 32V576a32 32 0 0 0 32 32h160V768a32 32 0 0 0 32 32h384a32 32 0 0 0 32-32v-160h160a32 32 0 0 0 32-32v-512a32 32 0 0 0-32-32h-96v-32a32 32 0 0 0-64 0v32zM352 608h320V736H352v-128z m352-64H160v-448h704V544h-160z m-384-96a32 32 0 0 0 32-32v-192a32 32 0 0 0-64 0v192a32 32 0 0 0 32 32z m384 0a32 32 0 0 0 32-32v-192a32 32 0 0 0-64 0v192a32 32 0 0 0 32 32z"  horiz-adv-x="1024" />

    
    <glyph glyph-name="xin" unicode="&#58941;" d="M512 103.456l309.248 314.816c56.992 58.048 56.992 152.384 0 210.432a143.104 143.104 0 0 1-205.12 0l-81.28-82.784a32 32 0 0 0-45.664 0l-81.312 82.784a143.104 143.104 0 0 1-205.12 0c-56.992-58.048-56.992-152.384 0-210.432L512 103.456zM570.496 673.6a207.104 207.104 0 0 0 296.384 0c81.504-82.944 81.504-217.184 0-300.16L540.928 41.6a31.968 31.968 0 0 0-28.928-8.96 31.968 31.968 0 0 0-28.928 8.96L157.12 373.44c-81.504 82.976-81.504 217.216 0 300.16a207.104 207.104 0 0 0 296.384 0L512 614.048l58.496 59.52z"  horiz-adv-x="1024" />

    
    <glyph glyph-name="xin-xz" unicode="&#58942;" d="M512 586.784l88.096 91.072a187.68 187.68 0 0 0 271.648 0c75.008-77.568 75.008-203.264 0-280.8L518.592 32 512 38.816l-6.592-6.816L152.256 397.056c-75.008 77.536-75.008 203.232 0 280.8a187.68 187.68 0 0 0 271.68 0L512 586.784z"  horiz-adv-x="1024" />

    
    <glyph glyph-name="tishixinxi" unicode="&#58943;" d="M512-64C264.576-64 64 136.576 64 384S264.576 832 512 832s448-200.576 448-448-200.576-448-448-448z m0 64c212.064 0 384 171.936 384 384S724.064 768 512 768 128 596.064 128 384s171.936-384 384-384z m11.36 96h-21.344a32 32 0 0 0-32 32V448a32 32 0 0 0 32 32h21.344a32 32 0 0 0 32-32v-320a32 32 0 0 0-32-32z m-10.816 448c-17.984 0-33.856 5.376-46.56 18.272-11.648 11.84-17.984 26.88-17.984 45.184 0 19.36 6.336 34.432 17.984 46.272 12.704 11.84 28.576 18.272 46.56 18.272s32.768-6.464 45.472-18.272c12.704-12.928 17.984-27.968 17.984-46.272 0-18.272-5.28-33.344-17.984-45.184-12.704-12.896-27.52-18.272-45.472-18.272z"  horiz-adv-x="1024" />

    
    <glyph glyph-name="saoyisao" unicode="&#58944;" d="M641.92 768a32 32 0 1 0 0 64H928a32 32 0 0 0 32-32v-288.192a32 32 0 0 0-64 0V768h-254.08zM896 254.144a32 32 0 0 0 64 0V-32a32 32 0 0 0-32-32h-287.36a32 32 0 0 0 0 64H896v254.144zM385.216 0a32 32 0 0 0 0-64H96a32 32 0 0 0-32 32v284.48a32 32 0 1 0 64 0V0h257.216zM128 510.496a32 32 0 1 0-64 0V800a32 32 0 0 0 32 32h289.248a32 32 0 1 0 0-64H128v-257.504zM160 416h704a32 32 0 0 0 0-64H160a32 32 0 0 0 0 64z"  horiz-adv-x="1024" />

    
    <glyph glyph-name="xiaoxi1" unicode="&#58945;" d="M668.8 64a160.064 160.064 0 0 0-313.6 0H176a80 80 0 1 0 0 160H224v256a288.096 288.096 0 0 0 179.2 266.752 112.064 112.064 0 0 0 217.6 0A288.096 288.096 0 0 0 800 480v-256h48a80 80 0 1 0 0-160h-179.2z m-66.24 0h-181.12a96.032 96.032 0 0 1 181.12 0z m-20.608 628.864a32 32 0 0 0-21.984 29.12 48 48 0 0 1-95.936 0 32 32 0 0 0-21.984-29.12A224.096 224.096 0 0 1 288 480v-288a32 32 0 0 0-32-32H176a16 16 0 1 1 0-32h672a16 16 0 1 1 0 32H768a32 32 0 0 0-32 32v288a224.096 224.096 0 0 1-154.048 212.864z"  horiz-adv-x="1024" />

    
    <glyph glyph-name="chongzhi-copy" unicode="&#59156;" d="M641.878 383.707c17.762 0 32.119 14.389 32.119 32.117 0 17.733-14.357 32.123-32.119 32.123h-97.459v1.313l119.043 124.342c12.24 12.847 12.043 33.181-0.805 45.414-12.787 12.209-32.956 11.758-45.258-1.121l-101.986-107.187-107.992 107.766c-12.592 12.555-32.89 12.494-45.419-0.064-12.527-12.563-13.135-32.892-0.578-45.419l118.754-119.073v-5.969h-95.144c-17.733 0-32.123-14.391-32.123-32.123 0-17.728 14.391-32.117 32.123-32.117h95.144v-64.247h-95.144c-17.733 0-32.123-14.356-32.123-32.117s14.391-32.123 32.123-32.123h95.144v-95.496c0-17.762 14.391-32.119 32.117-32.119 17.733 0 32.123 14.357 32.123 32.119v95.496h97.459c17.762 0 32.119 14.362 32.119 32.123s-14.357 32.117-32.119 32.117h-97.459v64.247l97.459-0.002zM961.397 407.033v-22.356h-63.653c0.002-0.325 0.012-0.648 0.012-0.973 0-212.53-172.876-385.427-385.4-385.46-212.324-0.032-385.514 173.137-385.512 385.461 0 212.543 172.909 385.452 385.453 385.452 0.126 0 0.252-0.005 0.378-0.005v64.241c-0.002 0.002-0.003 0.003-0.005 0.005-248.123 0.204-450.038-201.569-450.067-449.641-0.028-248.126 201.569-449.755 449.697-449.754 247.974 0.002 449.697 201.724 449.697 449.7 0 7.825-0.204 15.603-0.601 23.329zM929.752 650.609h-236.599c-17.81 0-32.246 14.437-32.246 32.246v0c0 17.81 14.437 32.246 32.246 32.246h236.598c17.81 0 32.246-14.437 32.246-32.246v0c0.002-17.81-14.437-32.246-32.244-32.246zM779.207 565.156v236.598c0 17.81 14.437 32.246 32.244 32.246v0c17.81 0 32.246-14.437 32.246-32.246v-236.598c0-17.81-14.437-32.246-32.246-32.246v0c-17.809 0-32.244 14.437-32.244 32.246zM523.693 769.202h-11.018v64.192h11.018c17.726 0 32.097-14.371 32.097-32.097v0c0.002-17.725-14.369-32.097-32.097-32.097zM929.571 417.28v0c-17.577 0-31.827-14.25-31.827-31.827v-0.776h63.653v0.776c0 17.577-14.25 31.827-31.827 31.827z"  horiz-adv-x="1024" />

    
    <glyph glyph-name="tixian" unicode="&#59186;" d="M880.672 140.32l-61.344 61.344a32 32 0 0 0 45.248 45.28l118.08-118.08a32 32 0 0 0 0-45.216l-113.92-113.92a32 32 0 0 0-45.28 45.248L884.8 76.32H691.84a32 32 0 0 0 0 64h188.832zM453.664 533.664l-83.648 97.024a32 32 0 0 0 48.48 41.792L522.88 551.392 627.264 672.48a32 32 0 0 0 48.48-41.792l-83.648-97.024h112.32a32 32 0 1 0 0-64h-149.76v-107.008h192.16a32 32 0 1 0 0-64h-192.16v-181.472a32 32 0 0 0-64 0V298.656h-192a32 32 0 0 0 0 64h192V469.664H341.344a32 32 0 1 0 0 64h112.32z m535.52-201.504a32 32 0 1 0-63.648 7.008A409.162 409.162 0 0 1 928 384c0 223.872-181.472 405.344-405.344 405.344-223.84 0-405.312-181.472-405.312-405.344 0-223.872 181.44-405.344 405.312-405.344 42.688 0 84.416 6.592 124.16 19.36a32 32 0 0 0 19.616-60.928c-46.08-14.784-94.4-22.4-143.776-22.4-259.2 0-469.312 210.112-469.312 469.312 0 259.2 210.112 469.344 469.312 469.344C781.856 853.344 992 643.2 992 384c0-17.408-0.96-34.688-2.816-51.84z"  horiz-adv-x="1056" />

    
    <glyph glyph-name="anquan" unicode="&#59794;" d="M870.226 735.581c-150.754 17.077-264.162 57.85-337.079 121.237l-19.189 16.69-20.682-14.784C378.992 777.126 265.971 735.787 157.38 735.787h-32.222v-451.311c0-138.365 121.984-263.853 372.933-383.674l13.213-6.311 13.419 5.77C772.994 6.92 898.842 136.142 898.842 284.476v447.86l-28.616 3.245z m-35.854-451.105c0-117.657-108.204-225.037-321.702-319.152C298.295 69.87 189.627 177.225 189.627 284.476V672.348c105.449 6.826 213.138 47.032 320.853 119.821 77.296-58.932 186.041-98.237 323.892-117.09v-390.603zM358.644 424.825c-11.797 13.342-32.17 14.604-45.513 2.807-13.368-11.796-14.604-32.17-2.807-45.512l122.68-138.855c12.724-14.347 30.419-21.713 48.294-21.713 19.369 0 37.733 8.706 50.02 23.671l199.101 244.535c11.229 13.806 9.144 34.102-4.662 45.358-13.806 11.23-34.102 9.169-45.357-4.662L481.324 285.995l-122.68 138.83z"  horiz-adv-x="1024" />

    
    <glyph glyph-name="shenfenzheng" unicode="&#58946;" d="M118.561616 767.094949c-65.163636-0.129293-117.915152-52.880808-118.044444-118.044444v-531.006061c0.129293-65.163636 52.880808-117.915152 118.044444-118.044444h826.052525c65.163636 0.129293 117.915152 52.880808 118.044445 118.044444V649.050505c-0.129293 65.163636-52.880808 117.915152-118.044445 118.044444H118.561616zM59.60404 649.050505c0 32.581818 26.375758 58.957576 58.957576 58.957576h826.052525c32.581818 0 58.957576-26.375758 58.957576-58.957576v-531.006061c0-32.581818-26.375758-58.957576-58.957576-58.957575H118.561616c-32.581818 0-58.957576 26.375758-58.957576 58.957575V649.050505z m0-531.006061M230.012121 360.210101c-66.19798-34.521212-111.450505-103.563636-111.450505-183.208081 0-16.290909 13.187879-29.478788 29.478788-29.478788 16.290909 0 29.478788 13.187879 29.478788 29.478788 0 81.325253 66.19798 147.523232 147.523232 147.523233s147.523232-66.19798 147.523233-147.523233c0-16.290909 13.187879-29.478788 29.478787-29.478788 16.290909 0 29.478788 13.187879 29.478788 29.478788 0 79.644444-45.381818 148.686869-111.579798 183.208081 31.806061 27.022222 52.492929 66.973737 52.49293 111.838384 0 81.325253-66.19798 147.523232-147.523233 147.523232-81.325253 0-147.523232-66.19798-147.523232-147.523232 0.129293-44.993939 20.816162-84.816162 52.622222-111.838384z m183.59596 111.838384c0-48.872727-39.692929-88.436364-88.436364-88.436364-48.872727 0-88.565657 39.563636-88.565656 88.565657 0 48.872727 39.563636 88.436364 88.565656 88.436363 48.743434-0.129293 88.436364-39.692929 88.436364-88.565656zM561.131313 560.484848c-16.290909 0-29.478788-13.187879-29.478788-29.478787 0-16.290909 13.187879-29.478788 29.478788-29.478788h354.004041c16.290909 0 29.478788 13.187879 29.478787 29.478788 0 16.290909-13.187879 29.478788-29.478787 29.478787H561.131313z m29.478788-147.523232c-16.290909 0-29.478788-13.187879-29.478788-29.478788 0-16.290909 13.187879-29.478788 29.478788-29.478788h324.525253c16.290909 0 29.478788 13.187879 29.478787 29.478788 0 16.290909-13.187879 29.478788-29.478787 29.478788h-324.525253z m88.565657-147.393939c-16.290909 0-29.478788-13.187879-29.478788-29.478788 0-16.290909 13.187879-29.478788 29.478788-29.478788h235.959596c16.290909 0 29.478788 13.187879 29.478787 29.478788 0 16.290909-13.187879 29.478788-29.478787 29.478788H679.175758z m0 0"  horiz-adv-x="1062" />

    
    <glyph glyph-name="YINHANGKA" unicode="&#59049;" d="M861.8 52.7H162.2c-50.8 0-92 43.6-92 97.5V617.9c0 53.8 41.2 97.5 92 97.5h699.6c50.8 0 92-43.6 92-97.5v-467.7c0-53.9-41.2-97.5-92-97.5zM917 590.3c0 47.5-36.3 86-81.1 86H188c-44.7 0-81-38.5-81-86v-30.9h810v30.9zM107.1 442.5v-264.8c0-47.5 36.3-86 81-86H836c44.7 0 81.1 38.5 81.1 86V442.5h-810z m533.7-292.3L696 267.1h184.1l-55.2-116.9H640.8z"  horiz-adv-x="1024" />

    
    <glyph glyph-name="phone" unicode="&#58625;" d="M920.422353 190.79940399999998c-94.192835 60.406275-108.526527 68.801723-141.698786 63.47778-33.138131-5.323943-43.001077-12.559045-90.677668-80.780594-6.757312-8.395448-70.74701-109.209084-300.427365 115.386223-168.386756 176.782205-118.525984 240.942542-86.68471 282.476121 27.711805 26.346692 58.802266 38.018412 63.409524 85.080702 1.979415 21.671178-0.78494 66.105624-70.678754 163.642987C246.807072 889.737542 237.490172 895.300379 206.229071 895.948808c-31.295228 0.648429-81.121873-15.118633-132.347758-57.16413C23.201472 804.144922 7.570922 763.498666 2.144596 715.9244590000001c-5.733477-60.064996-16.961536-263.193892 235.925749-546.898616 252.887285-283.704724 579.797853-344.691171 693.68245-264.217728 49.075832 35.492952 89.176043 114.32826 90.916563 165.042228 6.143011 34.981035-8.05417 60.576914-102.281133 120.949061z"  horiz-adv-x="1024" />

    


  </font>
</defs>
</svg>
